<?xml version="1.0" encoding="utf-8"?>
<!-- Generator: Adobe Illustrator 20.1.0, SVG Export Plug-In . SVG Version: 6.00 Build 0)  -->
<svg version="1.1" id="Calque_1" xmlns="http://www.w3.org/2000/svg" xmlns:xlink="http://www.w3.org/1999/xlink" x="0px" y="0px"
	 viewBox="0 0 432 432" style="enable-background:new 0 0 432 432;" xml:space="preserve">
<style type="text/css">
	.st0{fill:#CC7B26;}
	.st1{fill:#C9973C;}
	.st2{fill:#B36927;}
	.st3{fill:#E83F3F;}
	.st4{fill-rule:evenodd;clip-rule:evenodd;fill:#C9973C;}
</style>
<g>
	<g>
		<path d="M190.7,99.6h-8.7l-7.1,10.5c-0.7,1.1-1.4,2.2-2.1,3.5h-0.1V99.6h-7v31.5h7v-10.3l2.7-3.3l7.7,13.6h8.3l-11-18.1
			L190.7,99.6z"/>
		<polygon points="201.3,117.8 212.8,117.8 212.8,112 201.3,112 201.3,105.4 213.5,105.4 213.5,99.6 194.1,99.6 194.1,131.1 
			214.2,131.1 214.2,125.2 201.3,125.2 		"/>
		<polygon points="226.2,117.8 237.8,117.8 237.8,112 226.2,112 226.2,105.4 238.5,105.4 238.5,99.6 219,99.6 219,131.1 
			239.1,131.1 239.1,125.2 226.2,125.2 		"/>
		<path d="M263.2,101.9c-2.1-1.7-5.2-2.5-9.6-2.5c-4.3,0-7.4,0.3-9.6,0.7v31h7v-11.2c0.7,0.1,1.5,0.1,2.4,0.1c4.2,0,7.8-1,10.2-3.3
			c1.9-1.8,2.9-4.4,2.9-7.5C266.6,106.1,265.2,103.5,263.2,101.9z M253.4,114.5c-1,0-1.8,0-2.4-0.2V105c0.5-0.1,1.5-0.3,2.9-0.3
			c3.5,0,5.6,1.7,5.6,4.6C259.5,112.6,257.2,114.5,253.4,114.5z"/>
	</g>
	<g>
		<path d="M160.5,153.3c3.4,0,6,0.7,8,1.6l1.9-7.5c-1.7-0.9-5.4-1.9-10.3-1.9c-12.7,0-22.9,8-22.9,22.3c0,12,7.5,21.1,22,21.1
			c5.1,0,9-1,10.8-1.9l-1.4-7.4c-1.9,0.7-5,1.4-7.9,1.4c-8.5,0-13.5-5.3-13.5-13.7C147.1,157.9,152.9,153.3,160.5,153.3z"/>
		<path d="M186.5,146.2l-12.8,42h9.8l3-10.8h12l3.2,10.8H212l-13-42H186.5z M187.9,170.3l2.5-8.9c0.7-2.4,1.3-5.6,1.9-8.1h0.1
			c0.6,2.5,1.4,5.6,2.1,8.1l2.6,8.9H187.9z"/>
		<polygon points="227.2,146.2 217.6,146.2 217.6,188.2 243.9,188.2 243.9,180.2 227.2,180.2 		"/>
		<path d="M292.6,146.2h-12.4l-4.5,14c-1.4,4.7-2.8,10.2-4,15.1h-0.2c-0.9-4.9-2.2-10.2-3.6-15l-4.1-14h-12.7l-2.7,42h8.8l0.7-16
			c0.3-5.2,0.5-11.7,0.7-17.4h0.1c1,5.5,2.4,11.5,3.8,16.5l4.5,16.2h7.4l5.1-16.4c1.6-4.9,3.4-10.9,4.7-16.3h0.2
			c0,6.1,0.2,12.2,0.4,17.3l0.6,16.1h9.3L292.6,146.2z"/>
	</g>
	<g>
		<path d="M179.5,203l-9.5,31.1h7.3l2.2-8h8.9l2.4,8h7.6l-9.7-31.1H179.5z M180.5,220.8l1.8-6.6c0.5-1.8,1-4.2,1.4-6h0.1
			c0.5,1.8,1,4.2,1.6,6l1.9,6.6H180.5z"/>
		<path d="M221.9,212c0,4.7,0.1,8.9,0.6,13h-0.1c-1.4-3.5-3.2-7.4-5.1-10.7l-6.5-11.4h-8.2v31.1h6.5v-9.4c0-5.1-0.1-9.5-0.3-13.6
			l0.1,0c1.5,3.7,3.6,7.7,5.4,11l6.7,12h7.4V203h-6.5V212z"/>
		<path d="M256.7,206.1c-3-2.3-6.8-3.3-12.8-3.3c-3.6,0-6.9,0.2-9.5,0.6V234c1.8,0.2,4.3,0.5,8,0.5c6.1,0,11.1-1.3,14.4-4
			c3-2.5,5.2-6.7,5.2-12.6C262,212.3,260,208.5,256.7,206.1z M244,228.9c-0.9,0-1.8,0-2.4-0.1v-20.4c0.6-0.1,1.6-0.3,3.2-0.3
			c6.1,0,9.8,3.4,9.8,9.9C254.5,225.5,250.4,229,244,228.9z"/>
	</g>
	<g>
		<path d="M153.5,280.3h7.9V291c-0.9,0.5-3,0.8-5.7,0.8c-9.5,0-16.1-6.2-16.1-16.8c0-11.1,7.3-16.5,16.9-16.5c5.6,0,9.1,1,11.9,2.2
			l2.4-9.3c-2.5-1.2-7.6-2.5-14.2-2.5c-16.8,0-29.1,9.7-29.2,26.7c-0.1,7.5,2.5,14.2,7.2,18.6c4.7,4.6,11.5,6.9,20.8,6.9
			c6.8,0,13.5-1.7,17.1-2.9v-26.9h-19.1V280.3z"/>
		<polygon points="193.2,278.9 212,278.9 212,269.5 193.2,269.5 193.2,258.9 213.2,258.9 213.2,249.4 181.6,249.4 181.6,300.5 
			214.2,300.5 214.2,291.1 193.2,291.1 		"/>
		<polygon points="233.7,278.9 252.6,278.9 252.6,269.5 233.7,269.5 233.7,258.9 253.7,258.9 253.7,249.4 222.1,249.4 222.1,300.5 
			254.8,300.5 254.8,291.1 233.7,291.1 		"/>
		<path d="M286.7,271.2l16.9-21.8h-14.2l-11.6,17c-1.1,1.8-2.4,3.6-3.5,5.6h-0.2v-22.6h-11.5v51.2h11.5v-16.7l4.4-5.4l12.5,22.1
			h13.5L286.7,271.2z"/>
	</g>
	<g>
		<path d="M191.6,315c-14.9,0-24.6,11.3-24.6,26.5c0,14.4,8.8,25.7,23.8,25.7c14.8,0,24.8-10.1,24.8-26.6
			C215.6,326.6,207.1,315,191.6,315z M191.4,358.1c-7.7,0-12.3-7-12.3-16.9c0-9.8,4.5-17.2,12.2-17.2c7.9,0,12.2,7.8,12.2,16.9
			C203.5,350.8,199.1,358.1,191.4,358.1z"/>
		<path d="M254.5,315.8v14.7c0,7.7,0.2,14.5,1,21.2h-0.2c-2.3-5.7-5.3-12-8.3-17.3l-10.5-18.5h-13.4v50.6h10.5v-15.2
			c0-8.3-0.1-15.4-0.5-22.1l0.2-0.1c2.5,5.9,5.8,12.5,8.8,17.9l10.8,19.5h12v-50.6H254.5z"/>
	</g>
	<path class="st4" d="M250.1,66.7c0.2,4,0.2,7.6-2.4,8.9c-1.6,6.1-4.2,11.8-11.2,12.6c-9.3,1-18-4.7-17.2-14.9
		c-1.1-1.6-4.3-1.2-5.9-0.5c-0.7,4.2-1.1,7-2.7,9.6c-4.4,6.8-18.3,8.1-23.1,1.1c-0.8-1.2-1.6-2.7-2.1-4.1c-0.5-1.4-0.3-3.4-1.1-5
		c-0.5-0.9-1.9-1.4-2.3-2.7c-0.4-1.5,0.4-4,0.5-5.8c11.3-1.5,19.2-1.8,26.9,1.4c1.1,0.5,2.3,1.7,3.4,1.8c0.9,0.1,2.3-0.5,3.4-0.5
		c1.4,0,2.8,0.8,3.7,0.7c2-0.2,4.2-2,6.4-2.5C233.9,64.9,241.2,65.6,250.1,66.7z M187.8,70.8c-1.4,4,0,11.7,3.1,13.9
		c5.2,3.7,15,1.6,17.8-2.5c1-1.5,3-5.7,1.8-9.4c-1.4-4.4-8.2-5.3-14.4-5.3C193.1,67.5,188.5,68.9,187.8,70.8z M223.8,70.9
		c-2.5,2.8-1.8,9.1,0.5,11.7c3.8,4.4,13.2,5.9,17.8,1.6c2.5-2.4,4.9-9.6,2.5-13.4c-1.4-2.2-7.6-3-12.6-2.6
		C228.1,68.5,225.5,69.1,223.8,70.9z"/>
</g>
</svg>
